<mxfile host="app.diagrams.net" modified="2025-04-06T04:57:53.228Z" agent="Gemini" etag="some_unique_etag" version="23.7.2" type="device">
  <diagram name="Page-1" id="some_unique_id">
    <mxGraphModel dx="1156" dy="703" grid="1" gridSize="10" guides="1" tooltips="1" connect="1" arrows="1" fold="1" page="1" pageScale="1" pageWidth="850" pageHeight="1100" math="0" shadow="0">
      <root>
        <mxCell id="0"/>
        <mxCell id="1" parent="0"/>
        <mxCell id="2" value="Employee" style="rounded=1;whiteSpace=wrap;html=1;" vertex="1" parent="1">
          <mxGeometry x="40" y="100" width="120" height="60" as="geometry"/>
        </mxCell>
        <mxCell id="3" value="Department" style="rounded=1;whiteSpace=wrap;html=1;" vertex="1" parent="1">
          <mxGeometry x="280" y="100" width="120" height="60" as="geometry"/>
        </mxCell>
        <mxCell id="4" value="Division" style="rounded=1;whiteSpace=wrap;html=1;" vertex="1" parent="1">
          <mxGeometry x="280" y="260" width="120" height="60" as="geometry"/>
        </mxCell>
        <mxCell id="5" value="Project" style="rounded=1;whiteSpace=wrap;html=1;" vertex="1" parent="1">
          <mxGeometry x="520" y="100" width="120" height="60" as="geometry"/>
        </mxCell>
        <mxCell id="6" value="EmployeeProject" style="rounded=1;whiteSpace=wrap;html=1;" vertex="1" parent="1">
          <mxGeometry x="520" y="260" width="120" height="60" as="geometry"/>
        </mxCell>
        <mxCell id="7" value="" style="endArrow=none;html=1;rounded=0;exitX=1;exitY=0.5;exitDx=0;exitDy=0;entryX=0;entryY=0.5;entryDx=0;entryDy=0;" edge="1" parent="1" source="2" target="3">
          <mxGeometry width="50" height="50" relative="1" as="geometry">
            <mxPoint x="210" y="130" as="sourcePoint"/>
            <mxPoint x="260" y="130" as="targetPoint"/>
          </mxGeometry>
        </mxCell>
        <mxCell id="8" value="employs" style="edgeLabel;html=1;align=center;verticalAlign=middle;resizable=0;points=[{x=200,y=130}];" vertex="1" connectable="0" parent="7">
          <mxGeometry x="-0.35" y="-2" relative="1" as="geometry"/>
        </mxCell>
        <mxCell id="9" value="1" style="text;html=1;align=center;verticalAlign=middle;resizable=0;points=[];" vertex="1" parent="7">
          <mxGeometry x="-0.95" y="-11" relative="1" as="geometry"/>
        </mxCell>
        <mxCell id="10" value="N" style="text;html=1;align=center;verticalAlign=middle;resizable=0;points=[];" vertex="1" parent="7">
          <mxGeometry x="0.95" y="-11" relative="1" as="geometry"/>
        </mxCell>
        <mxCell id="11" value="" style="endArrow=none;html=1;rounded=0;exitX=0.5;exitY=1;exitDx=0;exitDy=0;entryX=0.5;entryY=0;entryDx=0;entryDy=0;" edge="1" parent="1" source="3" target="4">
          <mxGeometry width="50" height="50" relative="1" as="geometry">
            <mxPoint x="340" y="200" as="sourcePoint"/>
            <mxPoint x="340" y="260" as="targetPoint"/>
          </mxGeometry>
        </mxCell>
        <mxCell id="12" value="operates" style="edgeLabel;html=1;align=center;verticalAlign=middle;resizable=0;points=[{x=340,y=210}];" vertex="1" connectable="0" parent="11">
          <mxGeometry x="-0.16" y="-1" relative="1" as="geometry"/>
        </mxCell>
        <mxCell id="13" value="1" style="text;html=1;align=center;verticalAlign=middle;resizable=0;points=[];" vertex="1" parent="11">
          <mxGeometry x="-0.05" y="-16" relative="1" as="geometry"/>
        </mxCell>
        <mxCell id="14" value="N" style="text;html=1;align=center;verticalAlign=middle;resizable=0;points=[];" vertex="1" parent="11">
          <mxGeometry x="-0.05" y="4" relative="1" as="geometry"/>
        </mxCell>
        <mxCell id="15" value="" style="endArrow=none;html=1;rounded=0;exitX=1;exitY=0.5;exitDx=0;exitDy=0;entryX=0;entryY=0.5;entryDx=0;entryDy=0;" edge="1" parent="1" source="2" target="6">
          <mxGeometry width="50" height="50" relative="1" as="geometry">
            <mxPoint x="210" y="290" as="sourcePoint"/>
            <mxPoint x="460" y="290" as="targetPoint"/>
            <Array as="points">
              <mxPoint x="340" y="130"/>
              <mxPoint x="340" y="290"/>
              <mxPoint x="460" y="290"/>
            </Array>
          </mxGeometry>
        </mxCell>
        <mxCell id="16" value="is assigned to" style="edgeLabel;html=1;align=center;verticalAlign=middle;resizable=0;points=[{x=390,y=210}];" vertex="1" connectable="0" parent="15">
          <mxGeometry x="0.04" y="-2" relative="1" as="geometry"/>
        </mxCell>
        <mxCell id="17" value="N" style="text;html=1;align=center;verticalAlign=middle;resizable=0;points=[];" vertex="1" parent="15">
          <mxGeometry x="0.05" y="-11" relative="1" as="geometry"/>
        </mxCell>
        <mxCell id="18" value="1" style="text;html=1;align=center;verticalAlign=middle;resizable=0;points=[];" vertex="1" parent="15">
          <mxGeometry x="-0.95" y="-11" relative="1" as="geometry"/>
        </mxCell>
        <mxCell id="19" value="" style="endArrow=none;html=1;rounded=0;exitX=0;exitY=0.5;exitDx=0;exitDy=0;entryX=1;entryY=0.5;entryDx=0;entryDy=0;" edge="1" parent="1" source="5" target="6">
          <mxGeometry width="50" height="50" relative="1" as="geometry">
            <mxPoint x="460" y="130" as="sourcePoint"/>
            <mxPoint x="510" y="130" as="targetPoint"/>
          </mxGeometry>
        </mxCell>
        <mxCell id="20" value="N" style="text;html=1;align=center;verticalAlign=middle;resizable=0;points=[];" vertex="1" parent="19">
          <mxGeometry x="-0.95" y="-11" relative="1" as="geometry"/>
        </mxCell>
        <mxCell id="21" value="1" style="text;html=1;align=center;verticalAlign=middle;resizable=0;points=[];" vertex="1" parent="19">
          <mxGeometry x="0.95" y="-11" relative="1" as="geometry"/>
        </mxCell>
        <mxCell id="22" value="" style="endArrow=none;html=1;rounded=0;exitX=0.5;exitY=-0.25;exitDx=0;exitDy=0;entryX=0.5;entryY=1;entryDx=0;entryDy=0;dashed=1;" edge="1" parent="1" source="2" target="3">
          <mxGeometry width="50" height="50" relative="1" as="geometry">
            <mxPoint x="100" y="100" as="sourcePoint"/>
            <mxPoint x="340" y="160" as="targetPoint"/>
            <Array as="points">
              <mxPoint x="100" y="85"/>
              <mxPoint x="340" y="85"/>
            </Array>
          </mxGeometry>
        </mxCell>
        <mxCell id="23" value="manages" style="edgeLabel;html=1;align=center;verticalAlign=middle;resizable=0;points=[{x=220,y=85}];" vertex="1" connectable="0" parent="22">
          <mxGeometry x="0.08" y="-1" relative="1" as="geometry"/>
        </mxCell>
        <mxCell id="24" value="1" style="text;html=1;align=center;verticalAlign=middle;resizable=0;points=[];" vertex="1" parent="22">
          <mxGeometry x="-0.05" y="1" relative="1" as="geometry"/>
        </mxCell>
        <mxCell id="25" value="1" style="text;html=1;align=center;verticalAlign=middle;resizable=0;points=[];" vertex="1" parent="22">
          <mxGeometry x="-0.05" y="-19" relative="1" as="geometry"/>
        </mxCell>
        <mxCell id="26" value="" style="endArrow=none;html=1;rounded=0;exitX=0.5;exitY=-0.25;exitDx=0;exitDy=0;entryX=0.5;entryY=1;entryDx=0;entryDy=0;dashed=1;" edge="1" parent="1" source="2" target="4">
          <mxGeometry width="50" height="50" relative="1" as="geometry">
            <mxPoint x="100" y="100" as="sourcePoint"/>
            <mxPoint x="340" y="260" as="targetPoint"/>
            <Array as="points">
              <mxPoint x="100" y="245"/>
              <mxPoint x="340" y="245"/>
            </Array>
          </mxGeometry>
        </mxCell>
        <mxCell id="27" value="runs" style="edgeLabel;html=1;align=center;verticalAlign=middle;resizable=0;points=[{x=220,y=245}];" vertex="1" connectable="0" parent="26">
          <mxGeometry x="0.08" y="-1" relative="1" as="geometry"/>
        </mxCell>
        <mxCell id="28" value="1" style="text;html=1;align=center;verticalAlign=middle;resizable=0;points=[];" vertex="1" parent="26">
          <mxGeometry x="-0.05" y="1" relative="1" as="geometry"/>
        </mxCell>
        <mxCell id="29" value="1" style="text;html=1;align=center;verticalAlign=middle;resizable=0;points=[];" vertex="1" parent="26">
          <mxGeometry x="-0.05" y="-19" relative="1" as="geometry"/>
        </mxCell>
        <mxCell id="30" value="" style="endArrow=none;html=1;rounded=0;exitX=0.5;exitY=0;exitDx=0;exitDy=0;entryX=0.5;entryY=1;entryDx=0;entryDy=0;" edge="1" parent="1" source="6" target="5">
          <mxGeometry width="50" height="50" relative="1" as="geometry">
            <mxPoint x="580" y="260" as="sourcePoint"/>
            <mxPoint x="580" y="160" as="targetPoint"/>
          </mxGeometry>
        </mxCell>
        <mxCell id="31" value="N" style="text;html=1;align=center;verticalAlign=middle;resizable=0;points=[];" vertex="1" parent="30">
          <mxGeometry x="-0.05" y="-16" relative="1" as="geometry"/>
        </mxCell>
        <mxCell id="32" value="1" style="text;html=1;align=center;verticalAlign=middle;resizable=0;points=[];" vertex="1" parent="30">
          <mxGeometry x="-0.05" y="4" relative="1" as="geometry"/>
        </mxCell>
        <mxCell id="33" value="" style="endArrow=none;html=1;rounded=0;exitX=0.5;exitY=0;exitDx=0;exitDy=0;entryX=0.5;entryY=1;entryDx=0;entryDy=0;" edge="1" parent="1" source="6" target="2">
          <mxGeometry width="50" height="50" relative="1" as="geometry">
            <mxPoint x="580" y="260" as="sourcePoint"/>
            <mxPoint x="100" y="160" as="targetPoint"/>
            <Array as="points">
              <mxPoint x="580" y="200"/>
              <mxPoint x="100" y="200"/>
            </Array>
          </mxGeometry>
        </mxCell>
        <mxCell id="34" value="N" style="text;html=1;align=center;verticalAlign=middle;resizable=0;points=[];" vertex="1" parent="33">
          <mxGeometry x="-0.05" y="-16" relative="1" as="geometry"/>
        </mxCell>
        <mxCell id="35" value="1" style="text;html=1;align=center;verticalAlign=middle;resizable=0;points=[];" vertex="1" parent="33">
          <mxGeometry x="-0.05" y="4" relative="1" as="geometry"/>
        </mxCell>
        <mxCell id="36" value="1" style="text;html=1;align=center;verticalAlign=middle;resizable=0;points=[];" vertex="1" parent="7">
          <mxGeometry x="0.05" y="-11" relative="1" as="geometry"/>
        </mxCell>
        <mxCell id="37" value="1" style="text;html=1;align=center;verticalAlign=middle;resizable=0;points=[];" vertex="1" parent="11">
          <mxGeometry x="-0.05" y="-16" relative="1" as="geometry"/>
        </mxCell>
        <mxCell id="38" value="1" style="text;html=1;align=center;verticalAlign=middle;resizable=0;points=[];" vertex="1" parent="19">
          <mxGeometry x="-0.05" y="-11" relative="1" as="geometry"/>
        </mxCell>
      </root>
    </mxGraphModel>
  </diagram>
</mxfile>